<mxfile host="app.diagrams.net" agent="Mozilla/5.0 (Windows NT 10.0; Win64; x64) AppleWebKit/537.36 (KHTML, like Gecko) Chrome/136.0.0.0 Safari/537.36" version="27.0.8">
  <diagram name="第 1 页" id="745TRxrp8yx2YdwUPYCZ">
    <mxGraphModel dx="652" dy="388" grid="1" gridSize="10" guides="1" tooltips="1" connect="1" arrows="1" fold="1" page="1" pageScale="1" pageWidth="827" pageHeight="1169" math="0" shadow="0">
      <root>
        <mxCell id="0" />
        <mxCell id="1" parent="0" />
        <mxCell id="_mAh5e5J7vd-5eLsBbyQ-1" value="User" style="shape=umlActor;verticalLabelPosition=bottom;verticalAlign=top;html=1;rounded=0;labelBackgroundColor=none;fillColor=#F2CC8F;strokeColor=#E07A5F;fontColor=#393C56;" vertex="1" parent="1">
          <mxGeometry x="20" y="50" width="30" height="60" as="geometry" />
        </mxCell>
        <mxCell id="_mAh5e5J7vd-5eLsBbyQ-2" value=":&amp;lt;&amp;lt;UI&amp;gt;&amp;gt;&lt;div&gt;modifymode&lt;/div&gt;&lt;div&gt;Window&lt;/div&gt;" style="rounded=0;whiteSpace=wrap;html=1;labelBackgroundColor=none;fillColor=#F2CC8F;strokeColor=#E07A5F;fontColor=#393C56;" vertex="1" parent="1">
          <mxGeometry x="114.37" y="190" width="120" height="60" as="geometry" />
        </mxCell>
        <mxCell id="_mAh5e5J7vd-5eLsBbyQ-3" value="" style="rounded=0;whiteSpace=wrap;html=1;labelBackgroundColor=none;fillColor=#F2CC8F;strokeColor=#E07A5F;fontColor=#393C56;" vertex="1" parent="1">
          <mxGeometry x="100" y="30" width="148.75" height="100" as="geometry" />
        </mxCell>
        <mxCell id="_mAh5e5J7vd-5eLsBbyQ-4" value="" style="endArrow=classic;dashed=1;html=1;rounded=0;entryX=0;entryY=0.5;entryDx=0;entryDy=0;startArrow=none;startFill=0;endFill=1;labelBackgroundColor=none;strokeColor=#E07A5F;fontColor=default;" edge="1" parent="1" source="_mAh5e5J7vd-5eLsBbyQ-1" target="_mAh5e5J7vd-5eLsBbyQ-3">
          <mxGeometry width="50" height="50" relative="1" as="geometry">
            <mxPoint x="-10" y="118" as="sourcePoint" />
            <mxPoint x="60.710678118654755" y="68" as="targetPoint" />
          </mxGeometry>
        </mxCell>
        <mxCell id="_mAh5e5J7vd-5eLsBbyQ-5" value="" style="rounded=0;whiteSpace=wrap;html=1;labelBackgroundColor=none;fillColor=#F2CC8F;strokeColor=#E07A5F;fontColor=#393C56;" vertex="1" parent="1">
          <mxGeometry x="170" y="68" width="60" height="20" as="geometry" />
        </mxCell>
        <mxCell id="_mAh5e5J7vd-5eLsBbyQ-6" value="修改充电模式" style="text;html=1;align=center;verticalAlign=middle;resizable=0;points=[];autosize=1;strokeColor=none;fillColor=none;rounded=0;labelBackgroundColor=none;fontColor=#393C56;" vertex="1" parent="1">
          <mxGeometry x="124.38" y="33" width="100" height="30" as="geometry" />
        </mxCell>
        <mxCell id="_mAh5e5J7vd-5eLsBbyQ-7" value="充电模式:" style="text;html=1;align=center;verticalAlign=middle;resizable=0;points=[];autosize=1;strokeColor=none;fillColor=none;rounded=0;labelBackgroundColor=none;fontColor=#393C56;" vertex="1" parent="1">
          <mxGeometry x="100" y="63" width="70" height="30" as="geometry" />
        </mxCell>
        <mxCell id="_mAh5e5J7vd-5eLsBbyQ-8" value="确定" style="rounded=0;whiteSpace=wrap;html=1;labelBackgroundColor=none;fillColor=#F2CC8F;strokeColor=#E07A5F;fontColor=#393C56;" vertex="1" parent="1">
          <mxGeometry x="158.12" y="100" width="32.5" height="20" as="geometry" />
        </mxCell>
        <mxCell id="_mAh5e5J7vd-5eLsBbyQ-9" value="" style="endArrow=none;html=1;rounded=0;entryX=0.5;entryY=1;entryDx=0;entryDy=0;exitX=0.5;exitY=0;exitDx=0;exitDy=0;labelBackgroundColor=none;strokeColor=#E07A5F;fontColor=default;" edge="1" parent="1" source="_mAh5e5J7vd-5eLsBbyQ-2" target="_mAh5e5J7vd-5eLsBbyQ-3">
          <mxGeometry width="50" height="50" relative="1" as="geometry">
            <mxPoint x="-20" y="498" as="sourcePoint" />
            <mxPoint x="30" y="448" as="targetPoint" />
          </mxGeometry>
        </mxCell>
        <mxCell id="_mAh5e5J7vd-5eLsBbyQ-10" value="actionPerformed&lt;div&gt;(actionEvent)&lt;/div&gt;" style="text;html=1;align=center;verticalAlign=middle;resizable=0;points=[];autosize=1;strokeColor=none;fillColor=none;rounded=0;labelBackgroundColor=none;fontColor=#393C56;" vertex="1" parent="1">
          <mxGeometry x="60" y="140" width="110" height="40" as="geometry" />
        </mxCell>
        <mxCell id="_mAh5e5J7vd-5eLsBbyQ-11" value="theCar:&lt;div&gt;Car&lt;/div&gt;" style="rounded=0;whiteSpace=wrap;html=1;labelBackgroundColor=none;fillColor=#F2CC8F;strokeColor=#E07A5F;fontColor=#393C56;" vertex="1" parent="1">
          <mxGeometry x="564.37" y="262" width="120" height="60" as="geometry" />
        </mxCell>
        <mxCell id="_mAh5e5J7vd-5eLsBbyQ-12" style="edgeStyle=orthogonalEdgeStyle;rounded=0;orthogonalLoop=1;jettySize=auto;html=1;exitX=1;exitY=0.5;exitDx=0;exitDy=0;entryX=0;entryY=0.5;entryDx=0;entryDy=0;endArrow=none;startFill=0;labelBackgroundColor=none;strokeColor=#E07A5F;fontColor=default;" edge="1" parent="1" source="_mAh5e5J7vd-5eLsBbyQ-13" target="_mAh5e5J7vd-5eLsBbyQ-14">
          <mxGeometry relative="1" as="geometry" />
        </mxCell>
        <mxCell id="_mAh5e5J7vd-5eLsBbyQ-13" value="controller:&lt;br&gt;WaitingController" style="rounded=0;whiteSpace=wrap;html=1;labelBackgroundColor=none;fillColor=#F2CC8F;strokeColor=#E07A5F;fontColor=#393C56;" vertex="1" parent="1">
          <mxGeometry x="361.63" y="190" width="120" height="60" as="geometry" />
        </mxCell>
        <mxCell id="_mAh5e5J7vd-5eLsBbyQ-14" value=":DBFacade" style="rounded=0;whiteSpace=wrap;html=1;labelBackgroundColor=none;fillColor=#F2CC8F;strokeColor=#E07A5F;fontColor=#393C56;" vertex="1" parent="1">
          <mxGeometry x="653.63" y="190" width="120" height="60" as="geometry" />
        </mxCell>
        <mxCell id="_mAh5e5J7vd-5eLsBbyQ-15" value="" style="endArrow=none;html=1;rounded=0;exitX=0;exitY=0.5;exitDx=0;exitDy=0;labelBackgroundColor=none;strokeColor=#E07A5F;fontColor=default;" edge="1" parent="1" source="_mAh5e5J7vd-5eLsBbyQ-13">
          <mxGeometry width="50" height="50" relative="1" as="geometry">
            <mxPoint x="449.63" y="500" as="sourcePoint" />
            <mxPoint x="234" y="220" as="targetPoint" />
          </mxGeometry>
        </mxCell>
        <mxCell id="_mAh5e5J7vd-5eLsBbyQ-16" value="1.3:theCar=insert(id,mode)" style="text;html=1;align=center;verticalAlign=middle;resizable=0;points=[];autosize=1;strokeColor=none;fillColor=none;rounded=0;labelBackgroundColor=none;fontColor=#393C56;" vertex="1" parent="1">
          <mxGeometry x="473.63" y="230" width="180" height="30" as="geometry" />
        </mxCell>
        <mxCell id="_mAh5e5J7vd-5eLsBbyQ-17" value="1.1:theCar=get(id,Car)" style="text;html=1;align=center;verticalAlign=middle;resizable=0;points=[];autosize=1;strokeColor=none;fillColor=none;rounded=0;labelBackgroundColor=none;fontColor=#393C56;" vertex="1" parent="1">
          <mxGeometry x="493.63" y="180" width="140" height="30" as="geometry" />
        </mxCell>
        <mxCell id="_mAh5e5J7vd-5eLsBbyQ-18" value="1.Modify_Mode&lt;div&gt;(car_Id, mode)&amp;nbsp;&lt;/div&gt;" style="text;html=1;align=center;verticalAlign=middle;resizable=0;points=[];autosize=1;strokeColor=none;fillColor=none;fontColor=#393C56;labelBackgroundColor=none;" vertex="1" parent="1">
          <mxGeometry x="246.63" y="169.60000000000002" width="110" height="40" as="geometry" />
        </mxCell>
        <mxCell id="_mAh5e5J7vd-5eLsBbyQ-19" value="" style="endArrow=classic;html=1;rounded=0;labelBackgroundColor=none;strokeColor=#E07A5F;fontColor=default;exitX=0.099;exitY=-0.003;exitDx=0;exitDy=0;exitPerimeter=0;" edge="1" parent="1">
          <mxGeometry width="50" height="50" relative="1" as="geometry">
            <mxPoint x="502.5400000000001" y="209.66000000000003" as="sourcePoint" />
            <mxPoint x="624.72" y="209.75" as="targetPoint" />
          </mxGeometry>
        </mxCell>
        <mxCell id="_mAh5e5J7vd-5eLsBbyQ-20" value="" style="endArrow=classic;html=1;rounded=0;labelBackgroundColor=none;strokeColor=#E07A5F;fontColor=default;" edge="1" parent="1">
          <mxGeometry width="50" height="50" relative="1" as="geometry">
            <mxPoint x="255.64" y="209.60000000000002" as="sourcePoint" />
            <mxPoint x="343.27" y="209.60000000000002" as="targetPoint" />
          </mxGeometry>
        </mxCell>
        <mxCell id="_mAh5e5J7vd-5eLsBbyQ-21" value="" style="endArrow=classic;html=1;rounded=0;labelBackgroundColor=none;strokeColor=#E07A5F;fontColor=default;" edge="1" parent="1">
          <mxGeometry width="50" height="50" relative="1" as="geometry">
            <mxPoint x="493.63" y="228" as="sourcePoint" />
            <mxPoint x="643.63" y="228" as="targetPoint" />
          </mxGeometry>
        </mxCell>
        <mxCell id="_mAh5e5J7vd-5eLsBbyQ-22" value="" style="endArrow=classic;html=1;rounded=0;labelBackgroundColor=none;strokeColor=#E07A5F;fontColor=default;" edge="1" parent="1">
          <mxGeometry width="50" height="50" relative="1" as="geometry">
            <mxPoint x="164" y="140" as="sourcePoint" />
            <mxPoint x="164" y="182" as="targetPoint" />
          </mxGeometry>
        </mxCell>
        <mxCell id="_mAh5e5J7vd-5eLsBbyQ-23" value="" style="endArrow=none;html=1;rounded=0;entryX=0;entryY=0.5;entryDx=0;entryDy=0;labelBackgroundColor=none;strokeColor=#E07A5F;fontColor=default;exitX=0.5;exitY=1;exitDx=0;exitDy=0;" edge="1" parent="1" source="_mAh5e5J7vd-5eLsBbyQ-13" target="_mAh5e5J7vd-5eLsBbyQ-11">
          <mxGeometry width="50" height="50" relative="1" as="geometry">
            <mxPoint x="421.63" y="202" as="sourcePoint" />
            <mxPoint x="421.63" y="272.71067811865476" as="targetPoint" />
            <Array as="points">
              <mxPoint x="421.63" y="292" />
            </Array>
          </mxGeometry>
        </mxCell>
        <mxCell id="_mAh5e5J7vd-5eLsBbyQ-24" value="1.2:[theCar!=NULL]&lt;div&gt;setMode(mode)&lt;/div&gt;" style="text;html=1;align=center;verticalAlign=middle;resizable=0;points=[];autosize=1;strokeColor=none;fillColor=none;rounded=0;labelBackgroundColor=none;fontColor=#393C56;" vertex="1" parent="1">
          <mxGeometry x="424" y="302" width="130" height="40" as="geometry" />
        </mxCell>
        <mxCell id="_mAh5e5J7vd-5eLsBbyQ-25" value="" style="endArrow=classic;html=1;rounded=0;labelBackgroundColor=none;strokeColor=#E07A5F;fontColor=default;exitX=0.099;exitY=-0.003;exitDx=0;exitDy=0;exitPerimeter=0;" edge="1" parent="1">
          <mxGeometry width="50" height="50" relative="1" as="geometry">
            <mxPoint x="431.82000000000016" y="302" as="sourcePoint" />
            <mxPoint x="554.0000000000001" y="302.09" as="targetPoint" />
          </mxGeometry>
        </mxCell>
      </root>
    </mxGraphModel>
  </diagram>
</mxfile>
